<svg xmlns="http://www.w3.org/2000/svg" viewBox="0 0 88.36 48.32"><defs><style>.cls-1{fill:#fff;}</style></defs><g id="Layer_2" data-name="Layer 2"><g id="Layer_1-2" data-name="Layer 1"><path class="cls-1" d="M69.39,3.34a21,21,0,0,1,3.6.19,18.35,18.35,0,0,1,5,1.81,21.61,21.61,0,0,1,4.82,3.52,18.59,18.59,0,0,1,3.6,5.06A19.54,19.54,0,0,1,88,18.63a17,17,0,0,1,.24,5.59A21.51,21.51,0,0,1,81.1,37.7a19,19,0,0,1-5.71,3.73,16.92,16.92,0,0,1-6.89,1.32,19.45,19.45,0,0,1-5.37-.81,16.15,16.15,0,0,1-8-5.66A11.63,11.63,0,0,1,53,30.34a14.58,14.58,0,0,1,0-4.52q.14-.75.3-1.47c.08-.32,0-.44-.34-.42A35,35,0,0,0,47,25c-.42.11-.83.24-1.25.32a.55.55,0,0,0-.5.52c-.11.77-.24,1.53-.33,2.3-.39,3.14-.85,6.27-1.09,9.43-.08,1.08-.06,2.16,0,3.24,0,.59-.41.85-.76,1.16-.13.12-.28,0-.41-.09a2.39,2.39,0,0,1-.82-1.27,6.75,6.75,0,0,1-.18-2.76c.31-2.4.58-4.82.87-7.23.16-1.36.33-2.72.49-4.09.05-.47,0-.5-.47-.37-1.16.34-2.32.68-3.45,1.08s-2,.72-3,1.13a.52.52,0,0,0-.36.49,68.65,68.65,0,0,0-.33,7.31c0,.27,0,.5.34.6a.32.32,0,0,1,.15.13A1.29,1.29,0,0,1,35,38.6c-1,0-1.29-.24-1.52-1.41a17.23,17.23,0,0,1-.16-4.81c.09-1,.13-2.05.2-3.07,0-.32-.08-.43-.41-.35a1.35,1.35,0,0,1-1.42-.55c-.27-.42-.21-.69.26-.87s.92-.37,1.37-.6A1.13,1.13,0,0,0,34,26c.5-3,.92-6.09,1.29-9.15.29-2.34.54-4.69.66-7A14.06,14.06,0,0,0,35.81,8a.59.59,0,0,0-.1-.26c-.35-.43-.36-.55,0-.92s.68-.47,1.07-.14A3.17,3.17,0,0,1,38,9c0,.78,0,1.56,0,2.33-.14,1.94-.35,3.87-.6,5.79-.29,2.12-.55,4.24-.82,6.36-.09.69-.19,1.37-.28,2.06,0,.36,0,.41.39.3l5.4-1.8c.37-.13.73-.27,1.1-.39a.47.47,0,0,0,.36-.44c.39-2.65.76-5.3,1.19-7.94.28-1.74.54-3.48.94-5.19.06-.28.1-.65.42-.71s.47.29.61.53a3.75,3.75,0,0,1,.48,2.52c-.29,2-.54,3.93-.81,5.89l-.54,4.13c-.06.43,0,.52.43.42,1.06-.24,2.14-.44,3.22-.64.26-.05.36-.15.11-.37a1.28,1.28,0,0,1-.42-1,2.84,2.84,0,0,1,.77-2.48,1.35,1.35,0,0,1,1.68-.18,2.29,2.29,0,0,1,.95,3.33c-.14.26,0,.33.2.32l1.13-.05c.28,0,.41-.21.51-.43a29.87,29.87,0,0,1,2.9-4.94,5.14,5.14,0,0,1,.66-.74,22.08,22.08,0,0,1,5.62-4.17,9.27,9.27,0,0,1,7.5-.55,7.71,7.71,0,0,1,4.1,3.65A10.62,10.62,0,0,1,76,16.46c.06.19.15.4-.08.51s-.33-.14-.42-.29a10.16,10.16,0,0,0-2.77-3.34,6,6,0,0,0-4.45-1.06c-3.53.42-6.22,2.32-8.55,4.85a27.16,27.16,0,0,0-2.36,3,10.46,10.46,0,0,0-.71,1.37c-.16.32,0,.4.32.43a7.29,7.29,0,0,1,3.8,1.43,5.29,5.29,0,0,1,.89.88,1.1,1.1,0,0,1,.17.28c0,.13.08.29,0,.39s-.26,0-.35-.12a2.76,2.76,0,0,0-2-.75c-1,0-2.08,0-3.12-.09-.43,0-.64.09-.76.54a14.68,14.68,0,0,0,.12,8,9.77,9.77,0,0,0,4.87,5.82,16.45,16.45,0,0,0,10.67,2,15.9,15.9,0,0,0,8.55-4.29,20.7,20.7,0,0,0,5.13-7.44A17.63,17.63,0,0,0,86,20.34c-.4-4.88-2.87-8.55-6.62-11.5a21.67,21.67,0,0,0-5.29-2.92A17.16,17.16,0,0,0,68.85,4.6a21.44,21.44,0,0,0-5.93.2,27.55,27.55,0,0,0-3,.81c-.29.1-.72.27-.84,0s.33-.41.55-.55a8.81,8.81,0,0,1,3.54-1.23A38.37,38.37,0,0,1,69.39,3.34Z"/><path class="cls-1" d="M15.59,32.45a19.17,19.17,0,0,1,4.35.26,7.35,7.35,0,0,1,2.5.86,1.35,1.35,0,0,0,.67.23.53.53,0,0,1,.4.19c.11.11.32.22.23.39s-.37.14-.53.06a11,11,0,0,0-5.8-.75,27,27,0,0,0-5.36.93,28.91,28.91,0,0,0-7,3.19A6.24,6.24,0,0,0,2.39,41a2.56,2.56,0,0,0,1.23,3.36,10.83,10.83,0,0,0,3.54,1.4,14.75,14.75,0,0,0,4.24.5,18.11,18.11,0,0,0,6.27-1.5,20.29,20.29,0,0,0,4.46-2.55,17.25,17.25,0,0,0,4.49-4.91c.22-.37.47-.77.2-1.25a.27.27,0,0,1,.16-.38c.29-.12.29-.37.31-.62a6.36,6.36,0,0,0-1.37-4.3,19.21,19.21,0,0,0-4.84-4.46A58.12,58.12,0,0,0,13,21.69,34,34,0,0,1,7.21,18.6a11.39,11.39,0,0,1-3.7-4.1,6.38,6.38,0,0,1-.57-2.28A7.49,7.49,0,0,1,5.17,6.34,22.43,22.43,0,0,1,11,1.55a13.92,13.92,0,0,1,4-1.34A16.35,16.35,0,0,1,17.59,0a9.75,9.75,0,0,1,7,2.73c.42.37.78.79,1.17,1.19.14.15.31.32.11.53a.42.42,0,0,1-.66,0A9,9,0,0,0,24,3.59,11.22,11.22,0,0,0,18.7,2.1a13.32,13.32,0,0,0-11,4.75,13.33,13.33,0,0,0-2,2.6A5.18,5.18,0,0,0,5,12.29,4.34,4.34,0,0,0,6.4,15.06a16.27,16.27,0,0,0,4.22,3.06c1.89,1,3.89,1.83,5.77,2.86a43.47,43.47,0,0,1,9.52,6.5,12.51,12.51,0,0,1,2.88,3.88,6.41,6.41,0,0,1,.54,1.91,8.73,8.73,0,0,1-1.46,6.13,21.11,21.11,0,0,1-5.13,4.94c-.66.48-1.34.94-2,1.37a12.51,12.51,0,0,1-2.33,1A36.5,36.5,0,0,1,14.18,48a14.46,14.46,0,0,1-4.3.27A19,19,0,0,1,6,47.69,9,9,0,0,1,.92,44.62a4.45,4.45,0,0,1-.81-3.74A6.9,6.9,0,0,1,2.2,37.22a14.05,14.05,0,0,1,4-2.55,28.73,28.73,0,0,1,6.32-2A20.14,20.14,0,0,1,15.59,32.45Z"/><path class="cls-1" d="M48,33.15a40.44,40.44,0,0,1,.74-6.85,3.42,3.42,0,0,1,.45-1.2.61.61,0,0,1,1-.12,1.33,1.33,0,0,1,.5,1.3c-.25,2.15-.44,4.31-.6,6.46a13.34,13.34,0,0,0,.16,2.44c0,.43.08.86.12,1.29A.43.43,0,0,1,50,37a1.54,1.54,0,0,1-1.52-.87A3.61,3.61,0,0,1,48,34.44C48,34,48,33.58,48,33.15Z"/><path class="cls-1" d="M25.53,35.32c-.42,0-.59-.23-.78-.45s0-.22.12-.26a1,1,0,0,1,.93.48C25.91,35.42,25.61,35.29,25.53,35.32Z"/></g></g></svg>