<svg xmlns="http://www.w3.org/2000/svg" viewBox="0 0 240.24 131.39"><g id="Layer_2" data-name="Layer 2"><g id="Layer_1-2" data-name="Layer 1"><path d="M188.68,9.08c3.17.1,6.47-.17,9.78.52A49.91,49.91,0,0,1,212,14.51a59.89,59.89,0,0,1,13.11,9.58,50,50,0,0,1,9.77,13.77,52.4,52.4,0,0,1,4.37,12.79,46.49,46.49,0,0,1,.65,15.19c-1.72,14.67-8.66,26.67-19.39,36.66A52.29,52.29,0,0,1,205,112.66a45.68,45.68,0,0,1-18.74,3.56,52.14,52.14,0,0,1-14.6-2.19c-8.88-2.77-15.93-8.09-21.68-15.39-3.78-4.81-5-10.39-5.78-16.16a39.57,39.57,0,0,1-.08-12.29c.24-1.33.5-2.67.82-4,.21-.87,0-1.21-.93-1.13a92.17,92.17,0,0,0-16.14,2.76c-1.12.31-2.24.66-3.39.87a1.48,1.48,0,0,0-1.36,1.41c-.3,2.09-.64,4.17-.9,6.27-1,8.53-2.31,17-3,25.62-.22,2.94-.17,5.88-.11,8.82,0,1.61-1.11,2.3-2.06,3.16-.35.32-.77,0-1.11-.25a6.56,6.56,0,0,1-2.24-3.45,18.1,18.1,0,0,1-.48-7.51c.85-6.54,1.58-13.1,2.37-19.65.44-3.71.89-7.42,1.32-11.12.14-1.28-.06-1.37-1.29-1-3.14.91-6.28,1.84-9.37,2.93-2.7,1-5.38,1.95-8,3.07a1.4,1.4,0,0,0-1,1.33,183.2,183.2,0,0,0-.89,19.88c0,.74.14,1.35.92,1.64a.77.77,0,0,1,.42.35c1,1.73-.65,4.67-2.6,4.76-2.73.13-3.5-.65-4.12-3.84A46.21,46.21,0,0,1,90.57,88c.25-2.78.36-5.57.56-8.35.06-.88-.22-1.15-1.12-1a3.65,3.65,0,0,1-3.87-1.5c-.74-1.15-.56-1.86.7-2.37s2.52-1,3.72-1.62a3.09,3.09,0,0,0,1.82-2.49c1.36-8.26,2.52-16.55,3.53-24.86.77-6.36,1.46-12.74,1.77-19.15a39.44,39.44,0,0,0-.31-5,1.38,1.38,0,0,0-.29-.72c-1-1.16-1-1.48,0-2.5S99,17.29,100,18.2a8.55,8.55,0,0,1,3.25,6.35,60.92,60.92,0,0,1-.07,6.34c-.38,5.27-.94,10.52-1.64,15.75-.77,5.76-1.48,11.52-2.23,17.28-.24,1.87-.52,3.73-.75,5.6-.12,1,.1,1.13,1.07.81l14.67-4.9c1-.33,2-.72,3-1a1.29,1.29,0,0,0,1-1.2c1-7.2,2.08-14.41,3.23-21.59.76-4.73,1.48-9.47,2.56-14.13.17-.75.28-1.77,1.14-1.93s1.27.8,1.66,1.46a10.12,10.12,0,0,1,1.32,6.84c-.81,5.33-1.49,10.68-2.21,16-.5,3.74-1,7.48-1.48,11.22-.16,1.19,0,1.43,1.17,1.16,2.9-.68,5.82-1.22,8.75-1.76.71-.13,1-.4.31-1a3.58,3.58,0,0,1-1.15-2.62c-.17-2.52.09-4.82,2.1-6.74a3.66,3.66,0,0,1,4.56-.48c3.21,2,4.78,5.05,2.6,9.05-.38.7-.1.88.55.86l3.05-.13c.77,0,1.13-.58,1.39-1.17a81.48,81.48,0,0,1,7.89-13.43,15,15,0,0,1,1.8-2,60.11,60.11,0,0,1,15.28-11.35c6.6-3.24,13.4-4,20.38-1.47a20.88,20.88,0,0,1,11.17,9.92,28.47,28.47,0,0,1,2.21,4.83c.17.51.42,1.1-.2,1.39s-.91-.37-1.15-.8a27.57,27.57,0,0,0-7.53-9.06,16.26,16.26,0,0,0-12.1-2.9c-9.61,1.16-16.92,6.32-23.26,13.21a76.76,76.76,0,0,0-6.42,8.18A28.88,28.88,0,0,0,154,58.48c-.43.88.06,1.09.87,1.18a19.84,19.84,0,0,1,10.33,3.89,14.28,14.28,0,0,1,2.41,2.38,2.58,2.58,0,0,1,.46.76c.13.35.23.79-.09,1.06s-.68-.11-.93-.33a7.47,7.47,0,0,0-5.45-2c-2.82.07-5.66-.1-8.48-.25a1.67,1.67,0,0,0-2.06,1.47,39.91,39.91,0,0,0,.34,21.89c2.11,7.1,6.8,12.25,13.22,15.81a44.71,44.71,0,0,0,29,5.41c9.06-1.35,16.62-5.55,23.26-11.67a56.05,56.05,0,0,0,13.94-20.22,48.11,48.11,0,0,0,3.06-22.53c-1.09-13.26-7.81-23.25-18-31.27a58.74,58.74,0,0,0-14.39-7.93,46.06,46.06,0,0,0-14.31-3.6c-5.37-.35-10.78-.61-16.12.53A80.8,80.8,0,0,0,163,15.26c-.78.25-2,.74-2.28.08s.89-1.11,1.49-1.51a24.4,24.4,0,0,1,9.64-3.35A106.11,106.11,0,0,1,188.68,9.08Z"/><path d="M42.39,88.22a51.6,51.6,0,0,1,11.84.72A20.21,20.21,0,0,1,61,91.28a3.66,3.66,0,0,0,1.79.62,1.48,1.48,0,0,1,1.1.5c.3.33.88.62.62,1.09s-1,.36-1.43.15c-5-2.45-10.39-2.44-15.78-2a72.65,72.65,0,0,0-14.57,2.54,77.8,77.8,0,0,0-19.18,8.68,16.88,16.88,0,0,0-7.08,8.61c-1.66,4.26.16,7,3.35,9.14a29.53,29.53,0,0,0,9.62,3.79A39.5,39.5,0,0,0,31,125.74,49.41,49.41,0,0,0,48,121.65a55.21,55.21,0,0,0,12.14-6.93,47.35,47.35,0,0,0,12.21-13.36c.58-1,1.26-2.09.54-3.38a.74.74,0,0,1,.42-1c.79-.34.8-1,.85-1.7a17.35,17.35,0,0,0-3.72-11.7c-3.58-4.92-8.23-8.69-13.17-12.12A156.78,156.78,0,0,0,35.3,59c-5.37-2.56-10.87-4.85-15.71-8.41-4.12-3-7.73-6.49-10-11.15A17.38,17.38,0,0,1,8,33.24c-.59-6.34,2-11.48,6.06-16a60.72,60.72,0,0,1,16-13A38,38,0,0,1,41,.57,42.64,42.64,0,0,1,47.84,0c7.38-.23,13.56,2.61,19,7.42,1.12,1,2.12,2.14,3.16,3.23.39.41.86.86.32,1.45a1.19,1.19,0,0,1-1.82,0,22.3,22.3,0,0,0-3.17-2.36,30.86,30.86,0,0,0-14.42-4C38.68,5,29,9.87,20.91,18.62a36.76,36.76,0,0,0-5.43,7.06,14.24,14.24,0,0,0-1.79,7.73c.16,3,1.73,5.4,3.72,7.54a44.52,44.52,0,0,0,11.48,8.33c5.11,2.81,10.55,5,15.68,7.76,9.22,5,18.22,10.37,25.87,17.67a33.93,33.93,0,0,1,7.83,10.56,17.38,17.38,0,0,1,1.49,5.2,23.64,23.64,0,0,1-4,16.65c-3.77,5.41-8.66,9.63-13.93,13.44-1.81,1.31-3.65,2.55-5.54,3.73A34.28,34.28,0,0,1,50,127a102.54,102.54,0,0,1-11.4,3.59,40.39,40.39,0,0,1-11.7.74,50.61,50.61,0,0,1-10.6-1.62C10.89,128.2,6,125.89,2.51,121.33A12.16,12.16,0,0,1,.29,111.16a18.68,18.68,0,0,1,5.69-10,38.6,38.6,0,0,1,10.77-6.95,79.23,79.23,0,0,1,17.18-5.48A55.5,55.5,0,0,1,42.39,88.22Z"/><path d="M130.55,90.13a106.93,106.93,0,0,1,2-18.62,9,9,0,0,1,1.23-3.26,1.65,1.65,0,0,1,2.74-.32,3.61,3.61,0,0,1,1.34,3.54c-.66,5.84-1.18,11.69-1.62,17.55a34.59,34.59,0,0,0,.44,6.65c.13,1.16.22,2.32.32,3.49a1.15,1.15,0,0,1-1,1.35c-1.38.32-3.18-.67-4.13-2.35a10,10,0,0,1-1.28-4.53C130.5,92.47,130.55,91.3,130.55,90.13Z"/><path d="M69.4,96c-1.12.11-1.59-.62-2.11-1.24-.3-.36-.11-.6.33-.69a2.7,2.7,0,0,1,2.53,1.3C70.44,96.32,69.64,95.94,69.4,96Z"/></g></g></svg>