<svg xmlns="http://www.w3.org/2000/svg" viewBox="0 0 137.28 119.04"><defs><style>.cls-1{fill:#283139;}</style></defs><g id="Layer_2" data-name="Layer 2"><g id="Layer_1-2" data-name="Layer 1"><path class="cls-1" d="M0,93.85a90.59,90.59,0,0,1,2.35-9c4.78-12.91,13.8-22,25.89-28.26a77.66,77.66,0,0,1,27.41-7.77,114.39,114.39,0,0,1,31.79.81c12.08,2.07,23.28,6.26,32.74,14.3a48.09,48.09,0,0,1,16.45,26.5c3,13.34-4.87,25.65-18.13,28.23a23.15,23.15,0,0,1-4.4.39q-45.45,0-90.91,0a22.89,22.89,0,0,1-23-19.76,2.75,2.75,0,0,0-.23-.6ZM21.3,66.4A45.74,45.74,0,0,0,10.52,78.31a36.29,36.29,0,0,0-5.9,16.63,18.31,18.31,0,0,0,18.45,19.52q45.47,0,90.92,0a18.34,18.34,0,0,0,18.36-22.19c-2.06-10.65-7.88-19-16.19-25.76a2.19,2.19,0,0,0-.46-.21c-.41.76-.79,1.47-1.18,2.17-3.13,5.68-6.37,11.29-10.82,16.08a15.61,15.61,0,0,1-5.78,4.25c-3.78,1.44-7.57-.48-8.31-4.44a19.58,19.58,0,0,1-.13-5.72,54.57,54.57,0,0,1,4-13.87c1.08-2.72,2.27-5.4,3.55-8.44L82.36,53.25v3.21A86.12,86.12,0,0,1,81,73.27c-.85,4.36-2,8.64-4.83,12.2-4.08,5.08-10.9,5.07-15,0a21.22,21.22,0,0,1-3.76-7.78c-2-7-2.45-14.24-2.43-21.5V53.48a74.89,74.89,0,0,0-14.39,3.06c1.76,4.54,3.56,8.87,5.12,13.27a32.83,32.83,0,0,1,2.32,13c-.21,3.5-2.09,5.82-5.22,6.4a6.58,6.58,0,0,1-5.62-1.62A37.33,37.33,0,0,1,31,81.31C27.57,76.52,24.55,71.45,21.3,66.4ZM59.56,52.89c-.14,7.53,0,14.79,1.78,21.93.72,3,1.64,5.86,3.73,8.2a4.54,4.54,0,0,0,7.14,0,18.33,18.33,0,0,0,2.64-4.61,42.47,42.47,0,0,0,2.58-13c.3-4.09.33-8.2.49-12.55Zm42.08,5.16c-.32.25-.42.29-.45.36-2.72,5.87-5.32,11.8-6.67,18.15a26.63,26.63,0,0,0-.34,6.74c.07,1.32,1.07,1.75,2.24,1.12a10.21,10.21,0,0,0,3.2-2.35c2.62-3.26,5.17-6.59,7.51-10,1.8-2.68,3.25-5.61,5-8.67ZM25.19,63.34c1.7,3,3.11,5.84,4.86,8.45C32.41,75.29,35,78.67,37.6,82A11.77,11.77,0,0,0,41,84.46a1.32,1.32,0,0,0,2.11-1,12.59,12.59,0,0,0,.14-4.1,55.58,55.58,0,0,0-2-8.28c-1.52-4.36-3.34-8.62-5.14-13.2Z"/><path class="cls-1" d="M48,34.66a11,11,0,0,1,2.38-7.21,8.77,8.77,0,0,0,0-11.39A12.11,12.11,0,0,1,50.6,1.23c1-1.3,2.23-1.58,3.35-.79s1.28,2.12.29,3.52a8,8,0,0,0,.14,9.82c3.81,5.06,3.83,10.77.07,15.85a8,8,0,0,0-.25,9.83c1,1.48.89,2.82-.31,3.62s-2.41.38-3.43-1A12.43,12.43,0,0,1,48,34.66Z"/><path class="cls-1" d="M73.23,21.87a12.07,12.07,0,0,1-2.43,7.31C68,33,67.92,35.8,70.44,39.75a2.29,2.29,0,1,1-3.7,2.68,12.46,12.46,0,0,1,0-15.39,8,8,0,0,0,1.35-8.29A13.3,13.3,0,0,0,66.38,16a12.55,12.55,0,0,1,.19-14.76C67.6-.06,68.9-.34,70,.52s1.15,2.13.23,3.45a7.88,7.88,0,0,0,.23,9.91A12.66,12.66,0,0,1,73.23,21.87Z"/><path class="cls-1" d="M80.14,34.73A11.92,11.92,0,0,1,82.73,27c2.65-3.49,2.63-7,0-10.56a12.53,12.53,0,0,1-.2-15.07C83.57,0,84.79-.34,86,.45s1.28,2.15.25,3.63a8,8,0,0,0,.14,9.6c3.92,5.27,4,10.76.08,16a8,8,0,0,0-.19,9.72c1,1.44.91,2.73-.17,3.56s-2.49.52-3.55-.9A11.67,11.67,0,0,1,80.14,34.73Z"/><path class="cls-1" d="M22.52,109.88A13.84,13.84,0,0,1,9.16,96.58a2.37,2.37,0,0,1,2.16-2.71c1.33-.08,2.27.88,2.4,2.46.42,5.25,3.64,8.45,9,9,1.52.15,2.46,1.05,2.42,2.32A2.39,2.39,0,0,1,22.52,109.88Z"/><path class="cls-1" d="M20.6,80.16a2.28,2.28,0,0,1-2.36,2.21A2.2,2.2,0,0,1,16.06,80a2.29,2.29,0,0,1,2.26-2.19A2.36,2.36,0,0,1,20.6,80.16Z"/><path class="cls-1" d="M16,87a2.35,2.35,0,0,1-2.33,2.27,2.24,2.24,0,0,1-2.2-2.35,2.21,2.21,0,0,1,2.22-2.2A2.31,2.31,0,0,1,16,87Z"/><path class="cls-1" d="M25.18,86.94a2.36,2.36,0,0,1-2.28,2.33,2.27,2.27,0,0,1-2.27-2.16,2.24,2.24,0,0,1,2.17-2.39A2.32,2.32,0,0,1,25.18,86.94Z"/></g></g></svg>