<svg xmlns="http://www.w3.org/2000/svg" viewBox="0 0 132.03 121.75"><defs><style>.cls-1{fill:#283139;}</style></defs><g id="Layer_2" data-name="Layer 2"><g id="Layer_1-2" data-name="Layer 1"><path class="cls-1" d="M132,107.55c-.52.63-1,1.3-1.55,1.88-3.66,3.69-7.35,7.35-11,11.06a4,4,0,0,1-3.08,1.26q-50.4,0-100.79,0a3.85,3.85,0,0,1-3-1.22C8.9,116.73,5.13,113,1.35,109.21c-1-1-1.7-2-1.12-3.4s1.81-1.7,3.19-1.61c.32,0,.66,0,1,0-.9-1.38-1.82-2.66-2.59-4C-.06,96.73-.14,93,.1,89.24a55.9,55.9,0,0,1,9-27.59c9.33-14.17,22.33-22.88,39.11-25.78C55.47,34.6,62.78,35,70.09,36a2.73,2.73,0,0,0,1.59-.11c4.35-2.59,9.18-3.79,14-4.86a13.6,13.6,0,0,0,7.64-4.17,9.57,9.57,0,0,1,8.34-3.49,1.15,1.15,0,0,0,.85-.55c1.34-2.25,2.7-4.49,3.9-6.82a2.56,2.56,0,0,0-.15-2.09A9,9,0,0,1,112.15.2a8.79,8.79,0,0,1,9.11,3.7,2.73,2.73,0,0,0,2.37,1.44c4.17.32,7,2.82,8.16,6.89a2.11,2.11,0,0,0,.24.44V16c-.06.06-.17.11-.18.17a9.11,9.11,0,0,1-9.46,7.1,2.23,2.23,0,0,0-1.65.91c-1.39,2.22-2.66,4.51-3.93,6.8a1.29,1.29,0,0,0,0,1.12A9.8,9.8,0,0,1,117.89,41,13.23,13.23,0,0,0,118,49.3c1.24,4,2.55,8,2.78,12.26a2.56,2.56,0,0,0,.7,1.31c1.32,1.53,2.68,3,4,4.51a24.77,24.77,0,0,1,5.62,10.16c.37,1.31.62,2.64.93,4v5.67a2,2,0,0,0-.24.57,24.76,24.76,0,0,1-8.39,15.46c-.29.26-.57.54-1.05,1,2.31,0,4.32.07,6.32,0A3.19,3.19,0,0,1,132,106ZM120.61,69.72c-3.81,16.19-13.39,26.35-30.14,28.05-13.09,1.33-23.87-4-30.65-15.27-9-14.93-6.29-29,5.14-41.78a4.81,4.81,0,0,0-.73-.17A60.2,60.2,0,0,0,50,40.82a51.86,51.86,0,0,0-35.1,21.55A50.35,50.35,0,0,0,5.51,87.24a27.54,27.54,0,0,0,.13,8.06c1.07,5.41,5.83,8.89,11.56,8.9q16.05,0,32.09,0c1.72,0,3.44,0,5.15,0A2.55,2.55,0,0,1,57,107.36c-.29,1.31-1.33,2-3.05,2H8.77c2.32,2.29,4.37,4.25,6.33,6.29a3,3,0,0,0,2.36,1q46.28,0,92.53,0c2,0,4.18.53,5.87-.18s3-2.66,4.38-4.08c.93-.91,1.83-1.84,3-3H78.52a11.11,11.11,0,0,1-1.29,0,2.56,2.56,0,0,1-1.94-3.61A2.64,2.64,0,0,1,78,104.2c9.45,0,18.9,0,28.35,0a21.84,21.84,0,0,0,5.47-.66c7.33-2,12.22-6.67,14.25-14C128.19,82,126,75.41,120.61,69.72ZM59.7,64.91c.26,2,.38,3.94.81,5.85,3.37,15,17.15,24.34,32.34,21.54,15.4-2.83,24.49-17.21,22.5-31.87a92.2,92.2,0,0,0-2.78-11.21,14.4,14.4,0,0,1-.34-7c.26-1.17.6-2.32.88-3.49a4,4,0,0,0-1.79-4.69q-4.3-2.58-8.69-5a4,4,0,0,0-4.76.66c-.7.64-1.36,1.31-2,2A14.2,14.2,0,0,1,89.1,35.5c-2.2.55-4.4,1.13-6.6,1.66C69.26,40.33,59.88,51.81,59.7,64.91Zm52.5-36.39c1.28-2.23,2.54-4.31,3.71-6.45a6.86,6.86,0,0,1,6.89-4,3.62,3.62,0,0,0,3.71-2.27,3.55,3.55,0,0,0-.7-4.06,3.65,3.65,0,0,0-4.23-.94c-2.13.74-3.53-.05-3.93-2.28a3.67,3.67,0,0,0-3.06-3.22,3.5,3.5,0,0,0-3.72,1.47,3.62,3.62,0,0,0-.06,4.44,6.75,6.75,0,0,1,0,7.63c-1.28,2.18-2.53,4.38-3.84,6.65Z"/><path class="cls-1" d="M39.37,53.12A2.63,2.63,0,0,1,42,55a2.6,2.6,0,0,1-1.38,3.14c-2.16,1.32-4.39,2.53-6.42,4A36.8,36.8,0,0,0,23,75.84c-.13.27-.25.54-.4.8a2.57,2.57,0,0,1-3.48,1.23,2.46,2.46,0,0,1-1.16-3.48,89.48,89.48,0,0,1,6-9.45,39.84,39.84,0,0,1,14-11.28A12.11,12.11,0,0,1,39.37,53.12Z"/><path class="cls-1" d="M66.06,104.21a2.57,2.57,0,1,1-2.6,2.57A2.53,2.53,0,0,1,66.06,104.21Z"/></g></g></svg>