<svg xmlns="http://www.w3.org/2000/svg" viewBox="0 0 113.43 110.64"><defs><style>.cls-1{fill:#283139;}</style></defs><g id="Layer_2" data-name="Layer 2"><g id="Layer_1-2" data-name="Layer 1"><path class="cls-1" d="M82.65,110.64H.09c0-.66-.08-1.25-.08-1.84C0,89.21,0,69.62,0,50c0-10,1.35-19.68,5.53-28.83A38.39,38.39,0,0,1,28.43.21a2.71,2.71,0,0,1,2,0C36.8,3.73,43.13,7.36,49.68,11.1L48,13.37A5,5,0,0,0,47.3,19a5.27,5.27,0,0,0,6.11,2.64C56,20.86,57.09,18.2,58,15.9c0-.09,5.55,3.11,6,3.4q3.1,1.75,6.19,3.53Q91.14,34.76,112,46.71a2.73,2.73,0,0,1,1.34,1.79c.09,7.7,0,15.4,0,23.11a5.94,5.94,0,0,1-.12.75,5.55,5.55,0,0,1-1.12-.28c-2.46-1.18-4.56-.53-6.35,1.33a6.16,6.16,0,0,0,4.79,10.34h2.65V110.6H93.83c.33-1.31.65-2.48.92-3.67a6.73,6.73,0,0,0-2.74-7,6.86,6.86,0,0,0-7.56,0,6.58,6.58,0,0,0-2.71,7C82,108.09,82.32,109.27,82.65,110.64ZM107.93,89l-.51-.19C102,87,98.9,83,98.78,77.76s2.93-9.36,8.3-11.26c1-.36.91-.94.91-1.65,0-4.18-.06-8.37,0-12.55a2.54,2.54,0,0,0-1.55-2.6Q89.91,40.33,73.36,30.85l-7-4L63,24.92c-.74-.43-1.5-1.24-2.4-1.32s-1.72.78-2.45,1.34a11.69,11.69,0,0,1-2.88,1.72C50.33,28.54,45,25.37,42.4,21.19,40.85,18.66,41,15.77,42,12.93c-4.05-2.31-8-4.59-12-6.8a2,2,0,0,0-1.67,0c-3,1.75-6.31,3.23-8.94,5.47C8.73,20.63,6.44,33.14,5.5,46.36H30.34c1.47,6.68,3.91,9,8.55,8.39a6.81,6.81,0,0,0,5.82-7.37c-.25-4.05-3.6-7.18-9.06-6.45L34.05,36a12.38,12.38,0,0,1,9.14.68c4,2,6.16,5.29,7,9.68H89.62v5.36H87.5q-18.16,0-36.33,0A2,2,0,0,0,49,53a11.76,11.76,0,0,1-11.12,7.25,11.81,11.81,0,0,1-11.35-7.14,2.12,2.12,0,0,0-2.25-1.42c-5.69.06-11.44.08-17.13.08-.54,0-1,0-1.6,0v53.41H76c1.19-7.35,5.5-11.71,11.83-11.94a11.65,11.65,0,0,1,7.66,2.44,12.16,12.16,0,0,1,4.9,9.45h7.56Z"/><path class="cls-1" d="M24.89,89.19A10.57,10.57,0,1,1,35.51,99.81,10.61,10.61,0,0,1,24.89,89.19Zm10.53,5.12a5.16,5.16,0,0,0,5.24-5.15,5.2,5.2,0,0,0-10.4-.07A5.14,5.14,0,0,0,35.42,94.31Z"/><path class="cls-1" d="M78.48,70.29A10.57,10.57,0,1,1,67.82,59.73,10.6,10.6,0,0,1,78.48,70.29ZM68,75.51a5.23,5.23,0,0,0,5.18-5.2,5.37,5.37,0,0,0-5.25-5.2,5.29,5.29,0,0,0-5.15,5.27A5.15,5.15,0,0,0,68,75.51Z"/><circle class="cls-1" cx="34.85" cy="38.49" r="2.61"/><rect class="cls-1" x="70.55" y="46.39" width="21.81" height="5.35" rx="2.68"/></g></g></svg>