<svg xmlns="http://www.w3.org/2000/svg" viewBox="0 0 128.03 134.61"><defs><style>.cls-1{fill:#283139;}</style></defs><g id="Layer_2" data-name="Layer 2"><g id="Layer_1-2" data-name="Layer 1"><path class="cls-1" d="M58,134.61c-1-.22-2-.43-3-.67-9-2.16-15.42-7.74-20.29-15.34-3.93-6.13-6.39-12.91-8.71-19.74-3.61-10.62-7.77-21-13.5-30.66C10.19,64.44,7.8,60.77,5.56,57,2.43,51.76.25,46.17,0,40-.36,29,3.57,19.9,12,12.81a2.24,2.24,0,0,1,1.77-.54,3.08,3.08,0,0,1,1.72,1.54c.18.46-.34,1.36-.79,1.86-1.79,2-3.92,3.67-5.47,5.81-5.81,8-6.47,16.81-3.42,26a38.68,38.68,0,0,0,4.11,9,179.13,179.13,0,0,1,21,44.59,59.89,59.89,0,0,0,8.46,17.38c3.51,4.82,7.63,8.94,13.45,10.9,6.46,2.18,12.78,1.33,18.95-1.17a51.12,51.12,0,0,0,20.6-15.87c13.7-17,24.13-35.89,29.84-57.13a51.57,51.57,0,0,0,1.56-21c-1.29-8.7-5.84-15.22-13.08-20-5.67-3.74-12-5.71-18.57-7.28A109.5,109.5,0,0,0,64.12,4,157.41,157.41,0,0,0,33.9,7.4c-3.14.69-6.19,1.8-9.29,2.73-.45.14-.89.36-1.34.51A2.21,2.21,0,0,1,20.5,9.29c-.39-1,0-1.74,1.31-2.3A77.63,77.63,0,0,1,38.18,2.41,149.32,149.32,0,0,1,70.6.09C83.32.52,95.72,2.6,107.5,7.66c8.44,3.63,14.91,9.25,18.18,18.06A41.55,41.55,0,0,1,128,42.64c-.62,11.19-3.86,21.72-8.23,31.94A171,171,0,0,1,96.8,113.33c-6.26,7.94-13.72,14.53-23.17,18.46a80,80,0,0,1-9,2.59c-.2.06-.4.15-.6.23Z"/><path class="cls-1" d="M64.47,8.23c14,.08,26.16,1.72,37.89,6.23,6.64,2.54,12,6.38,15,13.07a31.16,31.16,0,0,1,2.41,14.36c-.46,9.23-2.94,18-6.37,26.51a163,163,0,0,1-23.49,40.49,51.6,51.6,0,0,1-15.67,13.42c-12.6,6.91-25,3.75-32.81-8.32-3.65-5.66-6-11.94-8.16-18.26-3.09-9-6-18-10.77-26.27-3-5.2-6.15-10.29-9.2-15.44A34.42,34.42,0,0,1,8.52,42.17C7.1,33.57,9.75,26.36,16,20.45A34.84,34.84,0,0,1,34.2,11.67c7-1.26,14.18-2.09,21.29-2.92C59,8.34,62.48,8.34,64.47,8.23Zm-.72,3.88A163.15,163.15,0,0,0,38,14.88a50.17,50.17,0,0,0-14.49,4.83c-9.88,5.43-13.75,15.36-9.74,25.88a61.13,61.13,0,0,0,5.62,10.79c4.46,7,8.71,14.17,11.77,21.93C33.93,85.45,36.39,92.74,39,100c2.11,5.77,4.6,11.36,8.78,16,5.67,6.3,12.88,8,20.7,4.77a43.29,43.29,0,0,0,16.9-12.82,152.85,152.85,0,0,0,27-48.16c2.61-7.62,4.34-15.4,3.43-23.56A19.37,19.37,0,0,0,109,23a34.65,34.65,0,0,0-11.66-6.14A100.5,100.5,0,0,0,63.75,12.11Z"/><path class="cls-1" d="M82.44,35.9c-2.93,0-5.88-.17-8.79.07A13.57,13.57,0,0,0,69,37.49a10.56,10.56,0,0,1-10.29-.12,14.15,14.15,0,0,0-7.33-1.63c-4.2.11-8.41,0-12.61.06a6.25,6.25,0,0,0-1.85.6c.5.49.93,1.26,1.53,1.42,3.33.9,6.7,1.65,10.05,2.45,6.93,1.66,11.29,5.93,12.75,12.91a50.79,50.79,0,0,1,.62,7.32q.85,14.09,1.66,28.19c.19,3.19.37,6.38.61,9.56,0,.39.38.76.57,1.13a4,4,0,0,0,.41-1.11c.21-3.8.38-7.6.57-11.41.11-2.1.82-3,2.2-2.93s2,1.09,1.85,3.17c-.24,4-.42,8-.66,11.93a4.18,4.18,0,0,1-4.34,4.29,4.26,4.26,0,0,1-4.57-4.23c-.22-3.06-.37-6.12-.56-9.18q-.75-12.39-1.51-24.77c-.19-3.11-.4-6.21-.57-9.31a12,12,0,0,0-9.6-11.6c-3.49-.83-7-1.61-10.48-2.4-3-.67-4.66-2.8-4.43-5.59.21-2.54,2.34-4.38,5.31-4.4,5.26,0,10.52-.1,15.77.07a11.07,11.07,0,0,1,4.58,1.38,10.66,10.66,0,0,0,10.53.07,14.48,14.48,0,0,1,7.22-1.54c4.73.11,9.47,0,14.2,0,3.09,0,4.89,1.28,5.21,3.68a5.46,5.46,0,0,1-4.12,6.28c-3.36.78-6.75,1.45-10.14,2.08a12.06,12.06,0,0,0-10,11.42c-.38,7.17-.86,14.33-1.32,21.5-.09,1.43-.88,2.15-2.16,2.08s-1.92-.89-1.83-2.36c.46-7.38.89-14.77,1.4-22.15A15.93,15.93,0,0,1,80.66,40c3.18-.58,6.35-1.24,9.52-1.89a2.07,2.07,0,0,0,1.06-.44A5.93,5.93,0,0,0,92,36.36a4.07,4.07,0,0,0-1.24-.48c-2.76,0-5.52,0-8.28,0Z"/></g></g></svg>