<svg xmlns="http://www.w3.org/2000/svg" viewBox="0 0 138.84 138.87"><defs><style>.cls-1{fill:#283139;}</style></defs><g id="Layer_2" data-name="Layer 2"><g id="Layer_1-2" data-name="Layer 1"><path class="cls-1" d="M53,9a13.26,13.26,0,0,1,10.87,4.67,1.59,1.59,0,0,0,.66.45,13.73,13.73,0,0,1,8.58,8.32A13.41,13.41,0,0,1,84.81,28c3.26,4.25,3.2,10,.6,14.72-.53,1-.47,1.55.77,2.92,1.71,1.87,1.77,4.48,1.15,6.94a4.36,4.36,0,0,0,.11,1.61l5.29-2.81c-.15-1.72-.32-3.75-.48-5.78s-.41-3.81-.42-5.71a8.56,8.56,0,0,1,8.83-8.53c5.09,0,9.08,3.65,9,8.48,0,2.93-.44,5.85-.68,8.78-.07,1-.14,1.94-.2,2.73L114.1,54l.85-.61a9.31,9.31,0,0,1,11.22,0c8.11,6.22,12.43,14.44,12.63,24.71.09,4.71.17,9.41-1.35,14a33.08,33.08,0,0,1-4.9,9.52l-.85,1.19,1.1.69a12.58,12.58,0,0,1,5.73,13.5A12.72,12.72,0,0,1,128,126.81q-18.84,2.9-37.67,5.83c-12.79,2-25.56,4-38.36,5.87-10.51,1.54-19.1-1.8-25.33-10.58-.87-1.21-1.76-.19-2.94-.41a7.38,7.38,0,0,0-5.6.78c-5.41,3.74-12.26.75-11.31-6.44,0-.26.08-.52.12-.78-4.6-.73-7-3.23-6.88-7.17.09-3.51,2.69-6,6.8-6.48a22.24,22.24,0,0,1,0-3.83,6.25,6.25,0,0,1,7.56-4.91q5.19,1.13,10.35,2.33c1,.23,1.51,0,2.23-1a24.43,24.43,0,0,1,4-4.39c1.25-1,1.5-1.45.94-2.72A67.26,67.26,0,0,1,28.1,82.32c-.32-1.24-.74-1.78-1.88-2A13.47,13.47,0,0,1,15.8,65.07a2.19,2.19,0,0,0-.5-1.63A13.18,13.18,0,0,1,12,49.36a1.43,1.43,0,0,0-.46-1.55C.64,39.05,2.62,23.09,15.26,17.13A2.21,2.21,0,0,0,16.35,16,13.6,13.6,0,0,1,27.86,6.74,2,2,0,0,0,29.09,6,13.47,13.47,0,0,1,52.82,8.55,4.39,4.39,0,0,0,53,9Zm-4.9,125.43c1.07-.13,3-.33,4.94-.63l35.46-5.49c12.92-2,25.85-3.94,38.77-5.94a8.19,8.19,0,0,0-.13-16.23l-42.5-6.5c-11.41-1.74-22.82-3.55-34.24-5.22-11.83-1.74-23.17,6.85-23.58,18.81S35.66,134.42,48.14,134.39ZM69.67,27.68c-.19-1-.34-1.82-.52-2.63-.89-4.19-5.18-7.53-9.43-7a8.83,8.83,0,0,0-7.65,5.79c-.29.7-.54,1.26-1.48,1.06-4.82-1-9.7,2.91-10.13,7.69-.09,1-.64,1.36-1.52,1.62a13.37,13.37,0,0,0-2.23,25l2,1.06L37.49,62A9.1,9.1,0,0,0,40,74.66c1.28.81,1.51,1.41,1,2.8a8.86,8.86,0,0,0,6.73,12c.9.18,1.85.14,2.77.27,4.41.65,8.81,1.33,13.29,2a2,2,0,0,0,0-.62c-1.52-5.35-1.21-10.79-.92-16.25a1.42,1.42,0,0,0-.66-1.18,21.8,21.8,0,0,0-4.62-2.28c-2.86-.79-5.78-1.37-8.74-2a2.2,2.2,0,0,1-1.74-2.15h0a2.17,2.17,0,0,1,2.32-2.2A37.51,37.51,0,0,1,62.2,68.35a3.53,3.53,0,0,0-.48-1.46,13.7,13.7,0,0,1-2.44-6.44c-.36-4.13-2.56-6.05-5.6-7.2a18.5,18.5,0,0,0-4-1.15c-2.41-.31-4.83-.5-7.34-.71a2.24,2.24,0,0,1-2-2h0a2.22,2.22,0,0,1,2.09-2.46,38,38,0,0,1,12.53,1.82L48.46,36.59a2.28,2.28,0,0,1,.78-3h0a2.29,2.29,0,0,1,3.27.89l8,15.5c3.43-6.26,5.76-9.85,7.85-12a2.28,2.28,0,0,1,3.4.2h0a2.29,2.29,0,0,1-.18,3,31.37,31.37,0,0,0-7.33,12.08c-.42,1.27-1.14,2.7-.89,3.88a56,56,0,0,0,2.48,7.25,45,45,0,0,1,2.73-4.24c3.69-4.53,7.22-9.39,14.19-8.66.09-3.39-1.79-5.71-4.08-7.91,3.93-3.53,5.61-7.61,2.78-12.37C78.8,26.79,74.59,26.18,69.67,27.68ZM39.9,90.59c0-.08,0-.14,0-.17-.14-.19-.27-.37-.42-.55A13.41,13.41,0,0,1,36,78.25a2,2,0,0,0-.58-1.4A13.17,13.17,0,0,1,32,63a1.38,1.38,0,0,0-.55-1.83,17.88,17.88,0,0,1,3.66-30.38,2.65,2.65,0,0,0,1.51-1.63c2-5.16,5.76-8.07,11.19-8.94a2.37,2.37,0,0,0,1.42-.82,14,14,0,0,1,6-4.87,7.77,7.77,0,0,0,.84-.47L56,13.48,49.46,14c-.14-.74-.3-1.6-.48-2.45A8.86,8.86,0,0,0,38.66,4.7a8.75,8.75,0,0,0-6.74,5.67c-.29.7-.55,1.23-1.48,1-5.1-1-9.72,3.2-10.12,7.56a1.8,1.8,0,0,1-1.53,1.77,13.36,13.36,0,0,0-2.36,24.88l2.14,1.1c-.47.73-.86,1.3-1.23,1.88-2.94,4.51-1.92,9.76,2.6,12.68,1.21.79,1.4,1.39.89,2.75A8.75,8.75,0,0,0,27.62,76c1,.19,2,.21,3.11.31q2.81,7.8,5.63,15.69Zm68.6-34.51c-.64,2.09-.64,3.52,1.16,4.85,2.9,2.15,3.24,5.55.42,7.8A12.7,12.7,0,0,1,105.5,71a51.88,51.88,0,0,1-6.38.87.88.88,0,0,0-.07.26c-.18,5.21-.48,10.42-.48,15.64A75.78,75.78,0,0,0,99.39,96c.1.9.44,1.38,1.54,1.53,5.16.7,10.3,1.55,15.44,2.38.86.14,1.43,0,1.74-.86.64-1.85,1.46-3.64,1.94-5.51,1.36-5.27,1-10.67.77-16a26.62,26.62,0,0,0-10.11-20.09A17.55,17.55,0,0,0,108.5,56.08ZM94.42,96.49c-.14-5.79-.34-11.44-.36-17.11,0-2.47.25-4.92.45-7.38a1.66,1.66,0,0,0-1.15-2c-1.93-.89-3.49-2.25-3.76-4.52-.29-2.44,1.07-4.08,3-5.24a1.45,1.45,0,0,0,.84-1.67c-.13-.76-.22-1.52-.35-2.46a20.18,20.18,0,0,0-1.82,1.1,27,27,0,0,0-9,12.35c-2.35,6.41-1.69,13-1.48,19.65a22.84,22.84,0,0,0,.73,4.4,1.49,1.49,0,0,0,.91,1C86.5,95.3,90.59,95.9,94.42,96.49Zm22.83-39a29.94,29.94,0,0,1,7.65,16.12,98.43,98.43,0,0,1,.42,13.53,45.74,45.74,0,0,1-1.07,8.13,49.67,49.67,0,0,1-1.79,5.55c.83.13,1.66.19,2.45.39a2.66,2.66,0,0,0,2.75-.73,27.7,27.7,0,0,0,5.3-9.26c1.75-5.25,1.71-10.66,1.1-16A25.66,25.66,0,0,0,123.44,57,4.57,4.57,0,0,0,117.25,57.45ZM76.8,93.79a21.65,21.65,0,0,1-.37-2.52c-.12-4.19-.27-8.38-.29-12.57A31,31,0,0,1,83.5,58.55c.29-.35.56-.71.82-1a4.79,4.79,0,0,0-6.4-.43,27.63,27.63,0,0,0-7.4,8.45C67,71.64,66.81,78.3,67.32,85.05a49,49,0,0,0,1.26,6.27,1.65,1.65,0,0,0,1.68,1.47C72.39,93,74.49,93.42,76.8,93.79Zm30.77-29a24,24,0,0,0-2.38-1.25c-2.06-.82-2.07-.79-1.85-3,0-.14,0-.28,0-.42C104,53.5,104.63,47,105.2,40.42a4.25,4.25,0,0,0-4.37-4.58,4.31,4.31,0,0,0-4.42,5.37,25.72,25.72,0,0,1,.33,7A34.16,34.16,0,0,0,97.6,58.5c.85,3.29,1.1,4.26-.6,4.78a24.06,24.06,0,0,0-3.06,1.43C96,67.83,105.29,67.92,107.57,64.75ZM22.36,112c-5.3,0-10.46,0-15.62,0a2.24,2.24,0,0,0-2.25,2.22,2.34,2.34,0,0,0,2.24,2.24c.23,0,.47,0,.7,0H21.25c.36,0,.71,0,1.11-.08Zm1.45-6.57c-3.29-.72-6.55-1.41-9.8-2.18-.94-.22-1.93-.34-2.35.57a3.4,3.4,0,0,0-.15,2.59,2.83,2.83,0,0,0,2.15,1.07c2.65.13,5.31,0,8,.09C23.12,107.63,23.77,107.11,23.81,105.42ZM24.13,123c-.77-.71-.14-2-1.57-2-3.12,0-6.24,0-9.36,0-1.49,0-2.25,1.13-2,2.72.2,1.28,1.16,1.87,2.58,1.57l1.91-.39Z"/><rect class="cls-1" x="44.87" y="103.11" width="4.31" height="22.2" rx="2.15"/><rect class="cls-1" x="62.76" y="103.15" width="4.3" height="22.2" rx="2.15"/><rect class="cls-1" x="80.7" y="103.11" width="4.31" height="22.2" rx="2.15"/><rect class="cls-1" x="98.59" y="107.58" width="4.3" height="13.28" rx="2.15"/><rect class="cls-1" x="116.5" y="109.87" width="4.3" height="8.77" rx="2.15"/></g></g></svg>