<svg xmlns="http://www.w3.org/2000/svg" viewBox="0 0 142.69 98.17"><defs><style>.cls-1{fill:#283139;}.cls-2{fill:none;stroke:#283139;stroke-linecap:round;stroke-linejoin:round;stroke-width:4px;}</style></defs><g id="Layer_2" data-name="Layer 2"><g id="Layer_1-2" data-name="Layer 1"><path class="cls-1" d="M142.69,63.28c-.19.46-.36.94-.6,1.39a6.3,6.3,0,0,1-5.92,3.67H117.92c-1.7,0-2.55-.73-2.54-2.09s.92-2.09,2.55-2.11c1.3,0,2.6,0,4,0V59.75H110.7C109.44,72.46,102.26,81.29,92,88a62.88,62.88,0,0,1-27.59,9.6,72.22,72.22,0,0,1-38.23-5.41c-1.35-.6-2.68-1.27-4-2a2.11,2.11,0,0,1-1.08-3,2.07,2.07,0,0,1,3-.71,59.5,59.5,0,0,0,20.92,6.74c17.58,2.21,34.06-.53,48.48-11.53,6.38-4.87,10.86-11.13,12.51-19.16a12.9,12.9,0,0,0,.2-1.52c.08-.86-.38-1.29-1.21-1.35-.37,0-.74,0-1.11,0H6.54c-2.32,0-2.52.21-2.12,2.48,1.36,7.74,5.66,13.69,11.46,18.71.32.27.66.52,1,.81a2.15,2.15,0,0,1,.26,3,2,2,0,0,1-3,.15,96.84,96.84,0,0,1-7.7-8A30.61,30.61,0,0,1,.11,62.15a5.6,5.6,0,0,1,1.75-5.43,2.13,2.13,0,0,0,.63-1.52c-.45-4.57,3.08-9.22,9-8.94,3.75.17,7.52,0,11.28,0,5.37,0,8.49,2.92,8.84,8.25,0,.28.06.55.1.88H65.07a35.41,35.41,0,0,1,.44-4.63,11.63,11.63,0,0,1,16.26-7.93,3.5,3.5,0,0,0,2.19.19A11.8,11.8,0,0,1,96.9,48.16c.85,1.38.72,2.59-.37,3.3s-2.2.38-3.16-1c-1.78-2.54-4.07-3.74-6.76-3.46a12.23,12.23,0,0,1,1.68,8.48H90c14.86,0,29.72.07,44.58-.05,4,0,6.73,1.24,8.12,5.05ZM27.25,55.41c.36-2.91-1-4.83-3.58-4.89q-6.6-.15-13.2,0c-2.66.06-4.17,2.26-3.58,4.89Zm51.23-9.23a7.31,7.31,0,0,0-6.85,1.93,7.14,7.14,0,0,0-2.14,6.6,1.2,1.2,0,0,0,.9.74q6.39.07,12.8,0a1.31,1.31,0,0,0,.94-.84,7,7,0,0,0-1.86-6.17c-.63.81-1.24,1.56-1.81,2.33a2.09,2.09,0,1,1-3.56-2.2C77.32,47.81,77.85,47.11,78.48,46.18Zm47.81,17.95c3.46,0,6.79,0,10.12,0a2.14,2.14,0,0,0,2.1-2.16,2.19,2.19,0,0,0-2.06-2.23c-3.36-.08-6.73,0-10.16,0Z"/><path class="cls-1" d="M76.78,36.28a11.66,11.66,0,0,1,0-23.31,11.66,11.66,0,1,1,0,23.31Zm7.45-11.49a7.43,7.43,0,0,0-14.85-.35,7.43,7.43,0,1,0,14.85.35Z"/><path class="cls-1" d="M45.41,34.8a11.63,11.63,0,0,1,5.33-9.94c1.42-.95,2.7-.83,3.44.25s.41,2.25-1,3.24c-4.73,3.26-4.71,9.37,0,12.64.87.59,1.52,1.26,1.33,2.37a2.1,2.1,0,0,1-3.34,1.33A11.46,11.46,0,0,1,45.41,34.8Z"/><path class="cls-1" d="M54.65,0A11.55,11.55,0,0,1,65.5,11.31c0,1.45-.73,2.31-2,2.36a2.08,2.08,0,0,1-2.2-2.17c-.36-4.33-3-7-7.26-7.33-1.5-.12-2.32-1-2.25-2.27S52.79-.06,54.65,0Z"/><path class="cls-2" d="M33.35,40a14.87,14.87,0,0,1-2.79-2.35c-3.36-3.31-6.71-6.63-10.12-9.9l-6.17-5.93-1.4-1.36a5.28,5.28,0,0,1-1.58-3A8.53,8.53,0,0,1,11.75,13a7.94,7.94,0,0,1,1.39-2.3c.07-.06.13-.14.2-.2a6.87,6.87,0,0,1,.94-.85A8,8,0,0,1,15,9.11a8.15,8.15,0,0,1,1.89-.84,6.36,6.36,0,0,1,7.24,2.34l2,3.59,4.51,8.13c2.06,3.72,4,7.51,6.25,11.11.75,1.21,1.81,2.74,1.65,4.24a3.41,3.41,0,0,1-2.34,2.79A3.49,3.49,0,0,1,33.35,40Z"/><line class="cls-2" x1="20.56" y1="14.33" x2="17" y2="17.08"/><line class="cls-2" x1="23.84" y1="19.4" x2="21.09" y2="21.52"/><line class="cls-2" x1="27.24" y1="24.37" x2="24.9" y2="26.18"/><path class="cls-2" d="M13.14,10.69a1.42,1.42,0,0,1-.72-.5L8.88,5.62a1.48,1.48,0,0,1,2.33-1.81l3.54,4.57a1.43,1.43,0,0,1,.29.73,8,8,0,0,0-.76.53h0a7.44,7.44,0,0,0-.93.85C13.27,10.55,13.21,10.63,13.14,10.69Z"/><path class="cls-2" d="M16.93,8.27A8.15,8.15,0,0,0,15,9.11a8,8,0,0,0-.76.53L13.13,6.29l-.48-1.4a1.47,1.47,0,0,1,2.56-1.37,1.22,1.22,0,0,1,.23.42Z"/><path class="cls-2" d="M11.75,13l-4.4-3.3a1.48,1.48,0,0,1-.29-2.07,1.2,1.2,0,0,1,.27-.28,1.47,1.47,0,0,1,1.79,0l2.57,1.92,1.65,1.24c-.07.06-.13.14-.2.2A7.94,7.94,0,0,0,11.75,13Z"/></g></g></svg>