<svg xmlns="http://www.w3.org/2000/svg" viewBox="0 0 98.05 98.09"><defs><style>.cls-1{fill:#8f8f8f;}</style></defs><g id="Layer_2" data-name="Layer 2"><g id="Layer_1-2" data-name="Layer 1"><path class="cls-1" d="M0,50.19C.1,21.58,22.36-.34,49.61,0a49.06,49.06,0,0,1,2.31,98c-14.72.69-27.42-4.1-37.78-14.57A47.5,47.5,0,0,1,0,50.19Zm35.73-2.53c-1.35.16-2.61.27-3.85.46-3.45.55-6.91,1-10.33,1.71s-6.93,1.63-10.4,2.43c-.5.12-.62.33-.53.8.39,2,.69,4,1.16,5.93a34.43,34.43,0,0,0,3,7.63c.13.23.22.39.56.3,3.68-1,7.35-2,11.05-2.86a81.65,81.65,0,0,1,12.05-1.89c3.44-.29,6.89-.42,10.35-.56a82.48,82.48,0,0,1,12.76.56c3,.35,6,.81,8.9,1.33a77.36,77.36,0,0,1,11.69,3.08c1.36.46,1,.52,1.61-.64a38.57,38.57,0,0,0,3.82-13.12.5.5,0,0,0-.42-.64c-1.33-.38-2.64-.83-4-1.18A123.47,123.47,0,0,0,67,47.86l-1.89-.24c.25-.95.53-1.82.7-2.71A26.89,26.89,0,0,0,65.74,34a5.08,5.08,0,0,0-3.53-4.16,6.53,6.53,0,0,1-.81-.37,14.77,14.77,0,0,0-2.35-1.11,5.24,5.24,0,0,0-3.45.12,13.56,13.56,0,0,1-2.13.69,15.34,15.34,0,0,1-2,.23,7.27,7.27,0,0,1-3.47,0,1.09,1.09,0,0,0-.26,0l-3.39-.3c-.63-.06-1.26-.12-1.88-.21s-1.41-.25-2.12-.37a2.27,2.27,0,0,0-.93,0,1.87,1.87,0,0,1-2.05-.55,2.62,2.62,0,0,0-1.71-.84,20.07,20.07,0,0,0-2.57,0,1.62,1.62,0,0,0-.92.44,6.87,6.87,0,0,0-.75.94c-.09.12-.2.31-.31.32a15.22,15.22,0,0,1-1.65.1c-.4,0-.8-.11-1.2-.09a1.93,1.93,0,0,0-1.53.7.72.72,0,0,0,.11,1.15,7.22,7.22,0,0,0,1.31.86c.87.45,1.76.68,2.51-.37.05.21.12.33.1.44A9.33,9.33,0,0,0,31,34.86c.1.55.24,1.09.36,1.63.16.74.35,1.46.48,2.2.05.32-.09.67,0,1s.17.69.59.55.54,0,.75.27a1.07,1.07,0,0,0,1.78,0c.1-.12.18-.29.31-.35a1,1,0,0,1,.61-.14c.63.14,1-.2.88-.86a4.63,4.63,0,0,1,0-1.34c.09-.46.33-.88.46-1.34.21-.66.37-1.34.56-2l.4-1.42.16,0a4.34,4.34,0,0,1-.06.63c-.08.41-.19.81-.3,1.21-.17.58-.33,1.18-.54,1.75a4,4,0,0,0-.46,2.63c.18.69-.42,1.15-1.12,1-.14,0-.35,0-.42,0-.48.52-1.06.93-.88,1.84s0,2,.64,2.78S35.54,46.7,35.73,47.66ZM16.79,69.11c.19.65.34,1.2.54,1.74a.51.51,0,0,0,.43.27,3.59,3.59,0,0,0,.95-.29c1-.48.09-1.12.1-1.67,0-.36-.38-.49-.72-.41S17.25,69,16.79,69.11Zm18.13-3a1.11,1.11,0,0,0,1.45,1.18,5.31,5.31,0,0,0,.7,0,.69.69,0,0,0,.36-.42c0-.19-.06-.42,0-.63a1.23,1.23,0,0,0-2.46-.1Zm38.42,2a9.69,9.69,0,0,0-.54-1.11.78.78,0,0,0-.46-.26s-.19.21-.22.34c-.13.42-.22.85-.32,1.28s-.1.57.52.54l.28-1a8.87,8.87,0,0,0,.49,1,.7.7,0,0,0,.43.3c.08,0,.24-.21.28-.34.14-.45.23-.92.36-1.38.07-.24.06-.39-.23-.46s-.37.08-.41.32S73.43,67.69,73.34,68Zm-50.18.81A1.19,1.19,0,0,0,22,67.6a1.28,1.28,0,0,0-1.32,1.22A1.1,1.1,0,0,0,21.9,70,1.18,1.18,0,0,0,23.16,68.84Zm46.46-1.28h.17a2.47,2.47,0,0,0,.32-.85.87.87,0,0,0-.47-.61,7.52,7.52,0,0,0-1.28-.3c-.12.61-.19,1.17-.35,1.7s.1.6.52.57l.23-.71c.64,1,.64,1,1.14.93,0-.12-.09-.23-.13-.34ZM50.36,64.14c-.67,0-.67,0-.68.67,0,.28,0,.56,0,.84,0,.73,0,.73.73.73a3,3,0,0,0,.42,0,1,1,0,0,0,1-1C51.87,64.58,51.38,64.16,50.36,64.14ZM76.21,67.6c-.19.65-.39,1.26-.54,1.88a.36.36,0,0,0,.19.33,6.33,6.33,0,0,0,1.11.31c.12,0,.27-.11.4-.17-.09-.12-.15-.29-.27-.35a5.49,5.49,0,0,0-.75-.24l.05-.21,1,.18c.31-.87-.74-.41-.83-1l1.09.23.16-.49ZM66,67.71l.13-.14c-.19-.68-.36-1.36-.56-2a.49.49,0,0,0-.78-.17c-.41.6-.79,1.22-1.18,1.83l.1.13a4.06,4.06,0,0,1,1.21-.19A3.72,3.72,0,0,1,66,67.71ZM43.15,64.35l.11,2.15H45l0-.59H43.86v-.18l1-.15c.07-.33,0-.52-.35-.47-.21,0-.44,0-.66,0v-.19a4.07,4.07,0,0,1,.61-.08c.45,0,.56-.17.35-.59Zm10.55-.14c0,.35,0,.61-.05.87,0,1.66-.41,1.33,1.34,1.42.39,0,.45-.16.34-.5l-1.09-.12v-.19l1-.09c.08-.89-.83-.21-1-.66.23-.45,1.13.34,1.1-.64Zm-14.61.46c0,.42.06.77.08,1.12,0,.74.43,1.11,1.13,1.06s1-.41,1-1.15c0-.23-.05-.46-.05-.68,0-.49-.2-.63-.69-.44,0,.38.08.76.11,1.14s-.06.58-.39.54c-.16,0-.37-.28-.42-.47a8.26,8.26,0,0,1-.12-1.16Zm-13,2A9.23,9.23,0,0,1,26.32,68c0,.16-.17.32-.27.49-.16-.1-.39-.17-.47-.31a3,3,0,0,1-.19-.76c-.12-.59-.15-.6-.71-.33l.15.82c0,.12.05.24.08.36a.94.94,0,0,0,1.22.76A.89.89,0,0,0,27,67.9c0-.3-.13-.58-.16-.88C26.76,66.57,26.53,66.51,26.1,66.72Zm55.2,2.59a4.76,4.76,0,0,0-.65-.42.8.8,0,0,0-1.09.31c-.19.4,0,.69.51,1,.13.08.24.18.37.27-.51.52-.85-.66-1.33,0a1.15,1.15,0,0,0,1,.73.75.75,0,0,0,.89-.37c.18-.39,0-.67-.33-.9l-.57-.4C80.51,69.12,80.9,70,81.3,69.31Zm-19.22-4c-.57-.64-1.18-.71-1.64-.35a1.28,1.28,0,0,0-.35,1.51,1.26,1.26,0,0,0,1.45.56c.14-.05.25-.23.37-.34a3,3,0,0,0-.49-.21c-.24-.09-.59-.08-.71-.25a.7.7,0,0,1,.07-.7c.15-.14.49-.08.74-.12Zm-33.48.89c-.15.68.37.38.64.49l.32,1.52c.44.07.66,0,.54-.52s-.14-.77-.2-1.14l.58-.21c0-.34-.06-.51-.42-.43S29.08,66.09,28.6,66.18Zm4.3-.76-.62.13.33,2.11c.52.1.64-.1.58-.51S33,66.06,32.9,65.42ZM35.29,4.77c-1,0-1,0-1,.32h.8A1.51,1.51,0,0,0,35.2,5,.85.85,0,0,0,35.29,4.77Z"/><path class="cls-1" d="M35.29,4.77A.85.85,0,0,1,35.2,5a1.51,1.51,0,0,1-.09.13h-.8C34.29,4.77,34.29,4.77,35.29,4.77Z"/><path class="cls-1" d="M15.24,66.29A36.22,36.22,0,0,1,12.36,59c-.21-.77-.37-1.57-.58-2.34-.11-.37,0-.49.35-.6A30.73,30.73,0,0,0,15,55l-3.38.54c-.3-.76-.3-.75.41-1,1.3-.42,2.59-.85,3.87-1.35L11.32,54a5.53,5.53,0,0,0-.08-.55c-.11-.42,0-.63.47-.74,1.84-.44,3.66-.95,5.51-1.38a146,146,0,0,1,18.36-3.09A123.33,123.33,0,0,1,49,47.48c2.09,0,4.18,0,6.26,0a128.66,128.66,0,0,1,13.58,1.17A117.57,117.57,0,0,1,81.61,51.2c1.61.41,3.21.9,4.81,1.36.18,0,.36.13.64.24-.3,1.6-.51,3.23-.92,4.8-.51,1.89-1.19,3.74-1.78,5.61-.13.4-.35.48-.75.41a22.34,22.34,0,0,0-3.08-.37l3.28,1.1-.22.62-4.36-.86,0,.1,4.05,1.4-.3.58C60.37,58.88,37.83,59.58,15.24,66.29Zm63.28-5.7c.34.09.68.16,1,.26s.53,0,.6-.34.19-.64.25-1a.55.55,0,0,0-.1-.37c-.4,0-.87-.61-1.22.09,0,0-.16,0-.24,0l-1.34-.38c.1-.75.12-.76.77-.59a1.45,1.45,0,0,1,.25.09c.38.2.53.06.68-.33s0-.74-.48-.82c-.13,0-.27-.07-.4-.1-.31-.07-.33-.25-.27-.52s.2-.33.46-.25l1.15.31-.12.13c.15.18.26.44.44.52.86.34.87.33,1.11-.59,0-.14.08-.27.11-.41.08-.32,0-.49-.36-.59-1.39-.37-2.77-.78-4.14-1.2-.29-.09-.49-.11-.56.22s-.42.63.08.84c.33.13.3.32.22.58-.16.55-.34,1.1-.46,1.67s-.24.74-.75.47c-.59.92-.55,1,.43,1.34l.36.1,2.53.82c-.25,0-.5-.07-.75-.13-.85-.23-1.69-.48-2.54-.72a.32.32,0,0,0,.21.26c1.5.45,3,.91,4.53,1.33.12,0,.38-.12.44-.26A6.06,6.06,0,0,0,80.74,60a1.42,1.42,0,0,0,0-.35h-.17a6,6,0,0,1-.28,1c-.07.17-.31.41-.43.38A9.17,9.17,0,0,1,78.52,60.59ZM53.67,52.26a8.71,8.71,0,0,0,0-.9c0-.12-.17-.3-.26-.3-.91,0-1.82,0-2.75,0l-.07,1.15.66.06c.09.66.06.78-.24.79-.59,0-1.18,0-1.79,0v-.82l.65-.11V51H47.38c-.25,0-.62-.13-.58.29s-.28.85.41.88c.1,0,.27.14.27.22,0,.87,0,1.74,0,2.6l-.74.07a8.24,8.24,0,0,0,0,.87c0,.1.15.26.23.26,1,0,1.92,0,2.84,0V55.07a1.12,1.12,0,0,0-.25,0c-.27,0-.44,0-.42-.36s0-.53.42-.52,1.07,0,1.64,0V55c-.72.1-.79.25-.58,1.22h3V55.09c-.7.15-.74-.25-.69-.76A6.87,6.87,0,0,0,53,53C52.92,52.45,53,52.13,53.67,52.26ZM22.44,56.82a1.28,1.28,0,0,0,0-1.51,1.48,1.48,0,0,0-1.61-.52c-1.35.32-2.67.72-4,1.11a.37.37,0,0,0-.2.33c.1.65.24.76.91.76l.76,2.63c-.61.23-.65.34-.39,1,.18.47.48.18.74.11.76-.2,1.53-.39,2.28-.63a9.36,9.36,0,0,0,1.8-.71,1.34,1.34,0,0,0,0-2.42ZM65,53.32a5.35,5.35,0,0,1,.11-.55c.12-.38,0-.55-.39-.6-.73-.09-1.46-.24-2.19-.31-.16,0-.48.17-.48.26,0,.3-.35.74.22.87.31.08.32.25.28.5-.08.47-.15.94-.19,1.41a1.84,1.84,0,0,0,1,2.05,6.59,6.59,0,0,0,1.88.62A2.3,2.3,0,0,0,68,55.45c0-.49.15-1,.22-1.46.09,0,.13,0,.16,0,.66.21.6-.29.67-.67s-.19-.48-.51-.52c-.6-.08-1.18-.17-1.77-.27-.79-.14-.8-.1-.85.69,0,.52.45.33.62.56-.08.52-.14,1-.24,1.56-.16.79-.51,1-1.22,1A1.05,1.05,0,0,1,64,55c0-.3.07-.59.11-.89C64.25,53.33,64.26,53.33,65,53.32Zm-7.36-2a7.74,7.74,0,0,0-.8.08,2.51,2.51,0,0,0-2.29,2.19,2.56,2.56,0,0,0,1.75,2.84,4.53,4.53,0,0,0,2.88.23,2.44,2.44,0,0,0,1.89-1.78,2.53,2.53,0,0,0-.79-2.75A4,4,0,0,0,57.67,51.27Zm-27,5.38c0,.19,0,.35,0,.5,0,.62.09.66.7.57l4-.57a1.66,1.66,0,0,0,.57-.16,4.86,4.86,0,0,0-.23-1.67c-.13-.29-1.13.2-1.21.64L33,56.21c-.26-.68-.23-.74.38-.85a2.35,2.35,0,0,1,.37,0c.41,0,.49-.17.41-.56-.13-.66-.11-.66-.79-.55-.17,0-.37.11-.51,0a.57.57,0,0,1-.3-.39.43.43,0,0,1,.23-.36c.4-.1.82-.15,1.27-.22.05.32.13.54.55.49.86-.1.88-.1.73-1a3.81,3.81,0,0,1-.07-.47c0-.38-.22-.47-.62-.4-1.36.24-2.73.43-4.1.63-.27,0-.58,0-.52.38s-.11.79.5.81c.12,0,.31.19.34.32.12.58.19,1.18.3,1.76S31.28,56.66,30.64,56.65Zm-3.93.71c-.33-.61-.3-.69.3-.85a1.53,1.53,0,0,1,.36-.07c.4,0,.5-.2.4-.58-.17-.66-.17-.68-.83-.52a1.36,1.36,0,0,1-.46.1.49.49,0,0,1-.34-.23c-.05-.14,0-.45,0-.47a6.59,6.59,0,0,1,1.22-.3c.1,0,.21.24.34.34a.49.49,0,0,0,.25.07c.86,0,1.05-.19.87-1,0-.1-.06-.2-.08-.3-.14-.61-.19-.63-.78-.49-1.33.3-2.67.58-4,.85-.27.06-.51.09-.43.43s0,.75.52.76a.51.51,0,0,1,.37.23c.19.71.35,1.43.49,2.15,0,.12-.1.37-.19.39-.65.17-.24.6-.23.9s.3.3.56.25c1.44-.29,2.88-.58,4.32-.89.15,0,.39-.16.38-.21-.07-.53-.2-1-.31-1.57,0,0-.06,0-.09,0a1.08,1.08,0,0,0-1.18.76Zm47.74-1.57c.42-.78.43-1.15,0-1.49A4.28,4.28,0,0,0,71,53.52a1.39,1.39,0,0,0-.47,2.6,9.24,9.24,0,0,0,1.2.52,5.77,5.77,0,0,1,.81.34c.12.06.25.29.21.36a.53.53,0,0,1-.38.26c-.51-.08-1-.21-1.54-.33.23-.76-.23-.77-.67-.82-.25,0-.62-.3-.71.1s-.48.88.05,1.3a4.59,4.59,0,0,0,3.84,1,1.35,1.35,0,0,0,1.15-1.14,1.31,1.31,0,0,0-.61-1.4,8.93,8.93,0,0,0-1.32-.64c-.25-.11-.54-.16-.79-.29s-.38-.34-.12-.58,1.35.06,1.48.51a.49.49,0,0,0,.29.29A9.23,9.23,0,0,0,74.45,55.79Zm-35.11-.32c-.24-.61-.19-.69.42-.72l.92-.07-.1-1.17-1.5.08L39,52.73l1.53-.13-.05.2a1.87,1.87,0,0,0,.63.26c.86,0,.86,0,.78-.89a1.62,1.62,0,0,1,0-.31c0-.48-.18-.64-.67-.58-1.38.15-2.76.25-4.14.38-.24,0-.55,0-.48.36s-.18.78.43.85a.6.6,0,0,1,.35.38c.1.64.14,1.29.21,1.93,0,.28,0,.45-.33.53-.53.11-.22.54-.23.83,0,.1.27.3.41.3.7,0,1.4-.09,2.09-.15s.66-.08.63-.76S39.66,55.49,39.34,55.47Zm29.05-1.36c-.1.62-.19,1.15-.27,1.69a2.06,2.06,0,0,1-1.27,1.67,3.89,3.89,0,0,1-2.56.16,3.46,3.46,0,0,0,2.87,0c1.4-.64,1.19-2,1.45-3.16.74-.05,1-.52.65-1.14C69.13,53.77,69.22,54.44,68.39,54.11ZM56.63,56.74a3.93,3.93,0,0,0,4.36-.6,2.44,2.44,0,0,0,.34-2.73c0,.06,0,.11,0,.17a2.67,2.67,0,0,1-2.69,3.28A16,16,0,0,1,56.63,56.74ZM25.11,59.17l0,.14c.23,0,.46,0,.69-.07l3.86-.79c.71-.15.71-.14.53-.86-.05-.22-.07-.45-.13-.67a3.62,3.62,0,0,0-.19-.4l-.2.07c.08.32.16.64.25.95s0,.6-.41.68c-.63.12-1.27.25-1.9.39ZM36.29,55.6l-.23,0a7.53,7.53,0,0,0,.14.85c.11.46,0,.71-.51.76-.67.08-1.35.17-2,.27s-1.59.26-2.43.4c.09.1.11.15.13.14l5-.68c.07,0,.18-.11.18-.15C36.47,56.68,36.38,56.14,36.29,55.6ZM23.58,57.48c.22,1.21-.06,1.86-1.15,2.29s-2.13.67-3.2,1c-.22.06-.44.14-.66.22l0,.14a1.54,1.54,0,0,0,.37,0c.63-.18,1.28-.36,1.91-.56A17.13,17.13,0,0,0,23,59.77,1.49,1.49,0,0,0,23.58,57.48Zm51.2.07A1.68,1.68,0,0,1,73.24,59,7.63,7.63,0,0,1,71.73,59a12,12,0,0,1-1.29-.29,4.07,4.07,0,0,0,3.31.48A1.42,1.42,0,0,0,74.78,57.55ZM47.24,56.37v.2h3V55.49l-.15,0a1.37,1.37,0,0,0-.06.39c.06.48-.16.54-.58.52C48.73,56.34,48,56.37,47.24,56.37Zm-9.69.6v.18a1.35,1.35,0,0,0,.28,0c.73,0,1.46-.08,2.19-.16.2,0,.54-.15.55-.25a4.17,4.17,0,0,0-.11-1c-.17.06-.21.1-.21.14,0,.87,0,.86-.91.91Zm16.3-4.57-.65.05v2.47c.13,0,.17-.07.17-.11,0-.42,0-.84,0-1.26,0-.8,0-.8.67-1V51.47h-.17Zm.2,3.12h-.16l-.09,1H51.05v.14h3Zm10.62-1.76c.79,0,1-.3.71-1.14-.1.61-.2,1.13-.94.83a4.77,4.77,0,0,0-.06,2.29ZM41.15,53.3v.15l1.1-.12c.06,0,.16-.13.15-.18,0-.52-.13-1-.2-1.53h-.15a1,1,0,0,0,0,.29c0,.34.18.77,0,1S41.46,53.18,41.15,53.3Zm-12-.06-.22.06a6.91,6.91,0,0,1,.21,1.16c0,.58-.63.31-.84.65A5.32,5.32,0,0,0,29.32,55c.05,0,.14-.14.12-.2C29.35,54.26,29.23,53.75,29.12,53.24ZM41.19,55l-.13-1.14-.2,0v.64c0,.39-.31.31-.53.34s-.45,0-.68.06h-.1a2.93,2.93,0,0,0-.12.28Zm40.42,1.4-.22-.06-.21.71c-.21.72-.24.74-1,.55a1.07,1.07,0,0,0-.25,0,2.59,2.59,0,0,0,.91.39c.09,0,.25,0,.27-.08C81.32,57.44,81.46,56.93,81.61,56.41ZM34.69,54l0,.18a5.12,5.12,0,0,0,1.13-.34c.21-.12-.11-1.33-.4-1.56a10.1,10.1,0,0,1,.12,1.17C35.59,54.07,34.94,53.72,34.69,54Zm45,4-.16-.05L79.4,58a.91.91,0,0,0-.07.14c-.2.6-.24.62-.86.42a1.33,1.33,0,0,0-.5-.13c-.12,0-.22.14-.36.24a6.8,6.8,0,0,0,1.07.17,1.34,1.34,0,0,0,.75-.2C79.58,58.53,79.58,58.22,79.64,58ZM33,55.92l.13.07a1.72,1.72,0,0,1,.37-.25c.16-.06.37,0,.51-.1a1.53,1.53,0,0,0,.61-.5c.08-.17-.06-.44-.1-.67l-.14,0c-.13.82-.13.82-1,1,0,0-.09,0-.1,0S33.08,55.8,33,55.92Zm17.24-4.45h-.16c0,.08-.06.16,0,.23,0,.36,0,.67-.47.65-.06,0-.13.27-.21.46l.89-.34Zm23.38,4.36,0,.15a2.79,2.79,0,0,0,1.22.14c.19-.06.21-.66.3-1l-.15,0C74.65,56,74.65,56,73.62,55.83ZM51,54.51v-.17a9.89,9.89,0,0,0-1.44,0c-.34,0-.26.29-.21.38ZM22.78,56.86a.83.83,0,0,0,.09-1.34Zm16.46-3.58,1.13-.38,0-.13-1.19.12ZM28.05,56.61,28,56.46l-.8.17c-.5.1-.51.12-.36.42Zm-.6-1.82,0-.18-.84.16c-.41.07-.37.25-.18.49a3.49,3.49,0,0,1,.48-.31A3.7,3.7,0,0,1,27.45,54.79Zm5.35-.74,1.12-.43C33,53.48,32.67,53.63,32.8,54.05Zm45.44,2.84,1.27.08C78.79,56.47,78.3,56.47,78.24,56.89Z"/><path class="cls-1" d="M17.86,70.09l.64.06c-.1.11-.18.27-.3.31s-.27-.07-.41-.11Z"/><path class="cls-1" d="M35.58,66.08a.51.51,0,0,1,.59-.56.51.51,0,0,1,.54.57.54.54,0,0,1-.6.63C35.73,66.72,35.57,66.46,35.58,66.08Z"/><path class="cls-1" d="M22.56,69c-.21.14-.42.38-.65.41-.41.06-.59-.25-.59-.63a.49.49,0,0,1,.59-.51c.25,0,.45.31.67.48Z"/><path class="cls-1" d="M69,66.38l.46.43c-.14.06-.32.2-.4.16s-.19-.26-.28-.41Z"/><path class="cls-1" d="M50.34,65.9V64.6c.28.13.57.17.69.34a.65.65,0,0,1,0,.62C50.91,65.72,50.63,65.77,50.34,65.9Z"/><path class="cls-1" d="M21.33,57.75c.14.13.38.26.41.42a.63.63,0,0,1-.25.55,4.52,4.52,0,0,1-1.29.41c-.11,0-.32-.28-.4-.47s0-.43.09-.46C20.33,58,20.79,57.91,21.33,57.75ZM20.1,59l.15,0c-.08-.9.82-.55,1.1-1.07l-1.46.4Z"/><path class="cls-1" d="M19.38,57.23c-.28-.79-.28-.78.4-1a2.94,2.94,0,0,1,.76-.2c.16,0,.34.17.51.26-.09.16-.15.39-.28.45A14.16,14.16,0,0,1,19.38,57.23Zm.09-.32,1.26-.61-.05-.15c-.41.13-.83.26-1.23.43C19.41,56.59,19.46,56.83,19.47,56.91Z"/><path class="cls-1" d="M56.49,54.58a1.21,1.21,0,0,1,.1-1.53,1.8,1.8,0,0,1,1.93-.42,1.46,1.46,0,0,1-.19,2.79,1.67,1.67,0,0,1-1.84-.85c.16-.58.24-1.23.89-1.51a9.41,9.41,0,0,1,1.08-.28,1.54,1.54,0,0,0-1.59.22A1.47,1.47,0,0,0,56.49,54.58Z"/></g></g></svg>