<svg xmlns="http://www.w3.org/2000/svg" viewBox="0 0 81.83 99.97"><defs><style>.cls-1{fill:#8f8f8f;}</style></defs><g id="Layer_2" data-name="Layer 2"><g id="Layer_1-2" data-name="Layer 1"><path class="cls-1" d="M40.76,34Q58,34,75.15,34c5.15,0,6.83,1.56,6.67,6.7-.29,9.16.21,18.5-1.41,27.44C76.91,87.52,59.79,100.34,39.56,100,20.33,99.6,3.68,85.77.93,66.63c-1.35-9.35-.84-19-.81-28.51C.13,34.7,3,33.94,6,34ZM68.86,59c-.57-4.67-1.79-8.6-6.13-10.64-4.13-1.94-7.14-.74-11.39,3.52a37.38,37.38,0,0,1-7.56,6.22c-6.3,3.61-12,2-16.38-3.78a20.63,20.63,0,0,0-4.95-5c-3.81-2.47-7.95-.64-8.76,3.86a23.31,23.31,0,0,0,.16,7.4c1.63,11.19,9.33,19.92,18.88,21.61C45.15,84.35,59.63,77.79,66,66.84,67.35,64.47,67.92,61.63,68.86,59Z"/><path class="cls-1" d="M26.77,20.41A6.53,6.53,0,0,1,20.38,27a6.86,6.86,0,0,1-6.59-6.52A6.54,6.54,0,0,1,20.29,14,6.28,6.28,0,0,1,26.77,20.41Z"/><path class="cls-1" d="M37,6.77A6.32,6.32,0,0,1,30.34,13,6.59,6.59,0,0,1,24,6.32,6.83,6.83,0,0,1,30.8,0,6.5,6.5,0,0,1,37,6.77Z"/><path class="cls-1" d="M40.77,14a6.29,6.29,0,0,1,6.49,6.4A6.56,6.56,0,0,1,40.86,27a6.82,6.82,0,0,1-6.6-6.52A6.55,6.55,0,0,1,40.77,14Z"/><path class="cls-1" d="M67.73,20.42a6.55,6.55,0,0,1-6.4,6.6,6.88,6.88,0,0,1-6.59-6.54A6.55,6.55,0,0,1,61.27,14,6.25,6.25,0,0,1,67.73,20.42Z"/><path class="cls-1" d="M57.49,6.6A6.27,6.27,0,0,1,51,13a6.56,6.56,0,0,1-6.52-6.49A6.85,6.85,0,0,1,51.12,0,6.47,6.47,0,0,1,57.49,6.6Z"/></g></g></svg>