<svg xmlns="http://www.w3.org/2000/svg" viewBox="0 0 100 99.16"><defs><style>.cls-1{fill:#8f8f8f;}</style></defs><g id="Layer_2" data-name="Layer 2"><g id="Layer_1-2" data-name="Layer 1"><path class="cls-1" d="M99.17,40.44v18.7c-.06.27-.14.54-.2.81A49,49,0,0,1,86.6,83.7a49.26,49.26,0,0,1-27,15c-.92.18-1.85.34-2.77.5H43.25L43,99.08c-2-.4-3.94-.7-5.87-1.2A49.76,49.76,0,0,1,46.84.1,51.33,51.33,0,0,1,62.26,1.52,50,50,0,0,1,98.5,37.62C98.73,38.56,99,39.5,99.17,40.44ZM62.35,55.54a8.39,8.39,0,0,1,2,6.09c-.16,1.57-.37,1.63-1.85,1.69-.28,0-.45.06-.53.34s-.22.67-.33,1A16.55,16.55,0,0,1,61,66.49a39.4,39.4,0,0,1-10,13,15,15,0,0,1-10.62,3.63,8.77,8.77,0,0,1-5.6-2.16,7.17,7.17,0,0,1-2.43-3.77A10.28,10.28,0,0,0,32,75.81a19.92,19.92,0,0,0-.94-2.11,2.93,2.93,0,0,0-1.76-1.33A11.85,11.85,0,0,0,29,74a13.48,13.48,0,0,0,2,8,9,9,0,0,0,6.07,4.42,14.16,14.16,0,0,0,9.19-1.35,20.22,20.22,0,0,1,2-.88,2.5,2.5,0,0,1,2.82.57,20.31,20.31,0,0,1,5,7.65c.11.32.26.41.58.35.83-.16,1.66-.29,2.49-.46a44.39,44.39,0,0,0,35-39,.41.41,0,0,0-.28-.48c-.83-.38-1.67-.76-2.46-1.22a43.19,43.19,0,0,1-7-5.41c-.56-.49-1.15-1-1.73-1.42a1.1,1.1,0,0,0-1.41,0,6.75,6.75,0,0,0-1,.81,22.13,22.13,0,0,1-4.83,3.68A10.4,10.4,0,0,1,72,50.61c-.91.15-1.12,0-1.32-.89a3,3,0,0,1,0-.42,1.05,1.05,0,0,1,.63-1.12q2.23-1.16,4.41-2.41a18.51,18.51,0,0,0,4.16-3.16,3.66,3.66,0,0,0-.57-5.55,14.66,14.66,0,0,0-2.71-1.44,30,30,0,0,0-6.83-1.53l-3-.43.28-.24a15.79,15.79,0,0,0,3.71-4.3,1.38,1.38,0,0,0,.19-.41,9.71,9.71,0,0,0-.08-5.55,8.65,8.65,0,0,0-5.62-5.39c-.34-.13-.71-.22-1.12-.35l.07.45a9.19,9.19,0,0,1-3,9,.59.59,0,0,0-.21.62A10.5,10.5,0,0,1,61,31.11c-.35,2.13-1.57,3.56-3.54,3.83A4.19,4.19,0,0,0,55.1,36a2.47,2.47,0,0,1-2.7.39c-.36-.15-.72-.32-1.07-.5a2.84,2.84,0,0,0-2.21-.2c-.28.08-.57.15-.85.26a3.68,3.68,0,0,1-4.47-1.59,17.65,17.65,0,0,1-1.07-2.29.56.56,0,0,0-.46-.4,1.48,1.48,0,0,1-1.34-2c.14-.63.34-1.25.5-1.88a3.43,3.43,0,0,0-.58-3.23,3.53,3.53,0,0,1-.63-1.36,5.41,5.41,0,0,1,.64-3.83c.47-.91,1-1.79,1.51-2.69.17-.31.32-.64.48-1l-.14,0a9.31,9.31,0,0,0-7.36,4.85,19.8,19.8,0,0,0-2.09,8,.69.69,0,0,1-.46.64q-4.15,2.07-8.28,4.2a4.34,4.34,0,0,0-1.09.92,1,1,0,0,0,0,1.54,8.71,8.71,0,0,0,1.33,1.17c1.53,1.07,3.07,2.14,4.65,3.15a9.46,9.46,0,0,0,2.2,1.05c1.7.55,2.46,0,2.8-1.72a2.07,2.07,0,0,0-1.91-2.74c-.71-.1-1.44-.08-2.15-.13a2.69,2.69,0,0,1-1.92-.75c-.26-.28-.23-.53.1-.72a1.2,1.2,0,0,1,.36-.13c1-.19,2-.43,3-.53a12.36,12.36,0,0,1,4.2.21,1.66,1.66,0,0,1,1.37,2.08,16.26,16.26,0,0,1-.77,2.36c-.55,1.4-1.18,2.77-1.71,4.18a52,52,0,0,1-3,6.54,3.42,3.42,0,0,1-3.23,1.91c-1.11,0-2.23,0-3.34,0a11.79,11.79,0,0,0-7.07,2.16,7.67,7.67,0,0,0-3.09,4,8.75,8.75,0,0,0,4.6,11,14.66,14.66,0,0,0,5.14,1.43,23.44,23.44,0,0,0,9.23-1,.78.78,0,0,1,.84.16,23.92,23.92,0,0,0,6,3.39,11.54,11.54,0,0,0,7.58.89,10.46,10.46,0,0,0,8.06-12.2,6.17,6.17,0,0,0-.9-2.75,7.66,7.66,0,0,0-5.33-3.32,29.94,29.94,0,0,0-3.16-.2,3.86,3.86,0,0,1-2.31-.68,2.54,2.54,0,0,1,1.68-1.15,12.35,12.35,0,0,1,4.92,0,8.93,8.93,0,0,1,5.05,2.7,7.25,7.25,0,0,1,1.69,3.93,7.55,7.55,0,0,0,.57,1.8.88.88,0,0,0,1,.4c.42,0,.55-.31.62-.67s.14-.63.19-.95c.2-1.18.37-2.36.6-3.54A2.71,2.71,0,0,1,62.35,55.54ZM26.51,73.13c-.14-.08-.16-.1-.19-.1l-1.3-.1a16.26,16.26,0,0,1-7.33-2.36,10.75,10.75,0,0,1-5.27-11.2A11,11,0,0,1,19,50.6a16.13,16.13,0,0,1,8.58-1.38,2.83,2.83,0,0,0,2.41-.91,4.59,4.59,0,0,0,1.55-3.65.51.51,0,0,0-.36-.53c-.72-.3-1.42-.62-2.11-1a52.27,52.27,0,0,1-8.17-5.4,4.4,4.4,0,0,1-1-1,2.19,2.19,0,0,1,.24-3.11A17.56,17.56,0,0,1,23.69,31c2.25-1.24,4.55-2.41,6.84-3.59a.78.78,0,0,0,.45-.71,37.55,37.55,0,0,1,.63-4.38,11.39,11.39,0,0,1,7.63-8.66,22.15,22.15,0,0,1,8.9-.9c.41,0,.83.07,1.34.12-.26.3-.45.54-.67.75-.73.67-1.46,1.32-2.21,2A14.22,14.22,0,0,0,44,18.38,5.66,5.66,0,0,0,43,22.6,5.08,5.08,0,0,0,46,26.25a12.18,12.18,0,0,0,4.91,1.29,12.36,12.36,0,0,0,8.56-2.39,5.5,5.5,0,0,0,2.12-6.56,17.12,17.12,0,0,0-2.32-4.34l-.31-.45.35,0a20.9,20.9,0,0,1,5.83.88,13.62,13.62,0,0,1,6,3.44,10.56,10.56,0,0,1,2.9,8.6,8.9,8.9,0,0,1-1.87,5s0,.05,0,.1l.19,0a21.07,21.07,0,0,1,9.22,4,24.14,24.14,0,0,1,2.79,2.75,1.4,1.4,0,0,1,.09,1.9,6.17,6.17,0,0,1-.39.6.56.56,0,0,0,0,.76c.74.94,1.4,2,2.22,2.82A30.21,30.21,0,0,0,94,50.09a.37.37,0,0,0,.14,0,2.42,2.42,0,0,0,0-.25A38,38,0,0,0,93,39,43.78,43.78,0,0,0,79.13,16.56a41.59,41.59,0,0,0-16-8.91A47,47,0,0,0,53.49,6a52.66,52.66,0,0,0-8.61,0,36,36,0,0,0-7.27,1.5A44.34,44.34,0,0,0,6.76,43.14a41,41,0,0,0,.39,15.42C10.4,72.88,18.88,83.05,32,89.35a43.22,43.22,0,0,0,21.37,3.8l.33-.06a2,2,0,0,0,0-.28,8.92,8.92,0,0,0-3.58-5.59,2,2,0,0,0-.51-.29A1.68,1.68,0,0,0,47.9,87a9.12,9.12,0,0,1-1.44.78,20.19,20.19,0,0,1-8.8,1.26,8.48,8.48,0,0,1-2.72-.52A13.44,13.44,0,0,1,28.06,82a17.08,17.08,0,0,1-1.55-6.36C26.46,74.75,26.51,73.91,26.51,73.13Zm15.2,8.52c.34,0,.63,0,.93-.08a6.49,6.49,0,0,0,3.84-1.66,2.6,2.6,0,0,0,.75-2.63,1,1,0,0,0-.78-.85,8.37,8.37,0,0,0-2-.22c-1.05.07-2.08.29-3.13.45a1.06,1.06,0,0,1-.92-.27,4.86,4.86,0,0,0-2.87-1.22,2.07,2.07,0,0,0-2,1,1.7,1.7,0,0,0,0,2A7.82,7.82,0,0,0,41.71,81.65Z"/><path class="cls-1" d="M58.78,49.73c-.07.51-.13,1.13-.27,1.73s-.44.77-1.07.82a3.65,3.65,0,0,1-2.21-.56,10,10,0,0,1-1.43-1,2.78,2.78,0,0,0-2.61-.53c-.65.15-1.29.3-1.94.41a1.12,1.12,0,0,1-1.39-1.31A9.14,9.14,0,0,1,51,43.13a4.41,4.41,0,0,1,3.39-1.26,3.53,3.53,0,0,1,2.88,1.82,11.27,11.27,0,0,1,1.25,3.87C58.66,48.24,58.7,48.93,58.78,49.73Zm-8.48-1a1.5,1.5,0,0,0,1.1-.64c.25-.33.43-.72.68-1.06a2.49,2.49,0,0,1,.59-.62A3.3,3.3,0,0,0,54,44.54,3.56,3.56,0,0,0,50.3,48.75Z"/><path class="cls-1" d="M41.53,40.42a2.39,2.39,0,0,1,2.4,1.63A16.47,16.47,0,0,1,45,47.19a4.94,4.94,0,0,1-.25,1.7,1.23,1.23,0,0,1-1.57.87,9.74,9.74,0,0,1-2.08-.87c-.59-.32-1.1-.79-1.66-1.16a1.61,1.61,0,0,0-.75-.26c-.76,0-1.52.06-2.28.06-1,0-1.21-.2-1.28-1.22a3,3,0,0,1,.64-2.18A12.19,12.19,0,0,1,39.26,41,4.44,4.44,0,0,1,41.53,40.42ZM38,46.31a17.35,17.35,0,0,0,3.16-3.78A3,3,0,0,0,38,46.31Z"/><path class="cls-1" d="M27.09,61.06a8.78,8.78,0,0,1-.31,1.31,1.58,1.58,0,0,1-1.39,1,4.17,4.17,0,0,1-2.81-.73,8.14,8.14,0,0,1-3.53-5.25,2,2,0,0,1,2.09-2.54,3.87,3.87,0,0,1,2.45.8,9.69,9.69,0,0,1,2.92,3.5A12.77,12.77,0,0,1,27.09,61.06Zm-4.88-3.72c-.82,0-1.08.26-.95,1a3.76,3.76,0,0,0,2.28,2.77.47.47,0,0,0,.17,0,.75.75,0,0,0,1-.64A2.73,2.73,0,0,0,22.21,57.34Z"/><path class="cls-1" d="M49.32,58.93a11.53,11.53,0,0,1,1.33.22A1.78,1.78,0,0,1,52,61.69a3.35,3.35,0,0,1-.73,1.16,8.56,8.56,0,0,1-6.29,2.61,2.75,2.75,0,0,1-1.28-.34A1.64,1.64,0,0,1,42.8,63a4,4,0,0,1,1.34-2A8.33,8.33,0,0,1,49.32,58.93Zm-3,4.79a4.07,4.07,0,0,0,2.1-.7,3.08,3.08,0,0,0,.82-.83.81.81,0,0,0-.53-1.33,3.28,3.28,0,0,0-1.21,0,2.54,2.54,0,0,0-2,1.47C45.18,63.12,45.56,63.71,46.37,63.72Z"/><path class="cls-1" d="M72.17,37.68a13.32,13.32,0,0,1,5.49,1.18,4.29,4.29,0,0,1,1.85,1.55c.15.23.37.53.09.75a.93.93,0,0,1-.72,0,4.65,4.65,0,0,1-1.1-.53,8.72,8.72,0,0,0-5-1.4c-1,0-2.1.1-3.16.14-.32,0-.69.14-.93-.21a.7.7,0,0,1,.38-1.1,11.19,11.19,0,0,1,2-.41A7.93,7.93,0,0,1,72.17,37.68Z"/><path class="cls-1" d="M50.45,2a47.56,47.56,0,0,1,0,95.11h-.9A47.56,47.56,0,0,1,49.55,2h.9m0-2h-.9A49.56,49.56,0,0,0,0,49.55H0A49.56,49.56,0,0,0,49.55,99.11h.9A49.56,49.56,0,0,0,100,49.55h0A49.56,49.56,0,0,0,50.45,0Z"/></g></g></svg>