<svg xmlns="http://www.w3.org/2000/svg" viewBox="0 0 96.84 54.28"><defs><style>.cls-1{fill:#8f8f8f;}</style></defs><g id="Layer_2" data-name="Layer 2"><g id="Layer_1-2" data-name="Layer 1"><path class="cls-1" d="M41.91,53.25A24.7,24.7,0,0,0,61.53,26.69C54.63,27.78,47.34,29,42,33.6a21.18,21.18,0,0,0-5.52,7.64c-1.31,3-1.45,6-2.29,9.1-1.92-2.87-1.85-8.83-1.56-12.17a44.81,44.81,0,0,1,9.08-22.91c4.62-6.26,11-10,18.6-12.12A94.93,94.93,0,0,1,89.14.07a61.23,61.23,0,0,1,7.49,1.18c1.5.25-5.41,20.23-6.22,22.08C87,31.11,82.61,38.74,76.49,44.72a32.49,32.49,0,0,1-16,8.45A40.74,40.74,0,0,1,41.91,53.25Z"/><path class="cls-1" d="M28.64,50.42c-2.21-4.25-5.54-6.3-10.34-5.5-.17,3.32.35,4.09,5,7.56C12.79,54-.43,42.24,0,31.09c0-.28,12.75,1.84,14,2.2a21.89,21.89,0,0,1,12,8.05c1.75,2.43,2.35,5.67,3.48,8.55C29.71,51.33,29.62,51.15,28.64,50.42Z"/><path class="cls-1" d="M57.36,30.06C59.5,42.35,46.27,50.18,37.45,51.33,37.25,40.57,45.27,32.64,57.36,30.06Z"/><path class="cls-1" d="M27.34,51.82c-4-.55-6.15-2.3-6.86-5.49C23.76,46.83,25.49,49.05,27.34,51.82Z"/></g></g></svg>